# xmcd
#
# Track frame offsets:
# 150
# 13690
# 31774
# 46357
# 65791
# 82404
# 98873
# 118341
# 137042
# 157572
# 175725
# 192332
# 204107
# 219382
# 235982
# 254602
# 271021
# 287400
# 302613
# 316656
#
# Disc length: 4448 seconds
#
#
# Revision: 0
# Processed by: cddbd v1.5.1PL2 Copyright (c) Steve Scherf et al.
# Submitted via: FreeRIP 2.90 
#
DISCID=12115e14
DTITLE=GIAN and GIOVANI - AS 20 MAIS
DYEAR=2005
DGENRE=SERTANEJA
TTITLE0=PEÃO DE VITRINE
TTITLE1=TATUAGEM
TTITLE2=TEIMOSIA
TTITLE3=O GRANDE AMRO DA MINHA VIDA
TTITLE4=1000 CORAÇÕES
TTITLE5=TAÇA DE PRANTO
TTITLE6=EU BUSCO UMA ESTRELA
TTITLE7=O NOME DELA
TTITLE8=AMOR PERFEITO
TTITLE9=VOCÊ VIROU SAUDADE
TTITLE10=SEMPRE TE AMEI
TTITLE11=O TREM É BOM
TTITLE12=A PRÓXIMA VÍTIMA
TTITLE13=SAI DESSA CORAÇÃO
TTITLE14=APERTE O PLAY
TTITLE15=OLHOS DE AMOR
TTITLE16=1,2,3
TTITLE17=PRA LÁ DE BAGDÁ
TTITLE18=SONHADOR
TTITLE19=PRA CONHECER UMA MULHER
EXTD=
EXTT0=
EXTT1=
EXTT2=
EXTT3=
EXTT4=
EXTT5=
EXTT6=
EXTT7=
EXTT8=
EXTT9=
EXTT10=
EXTT11=
EXTT12=
EXTT13=
EXTT14=
EXTT15=
EXTT16=
EXTT17=
EXTT18=
EXTT19=
PLAYORDER=
